<mxfile host="app.diagrams.net" modified="2022-03-24T18:06:28.697Z" agent="5.0 (Macintosh; Intel Mac OS X 10_15_7) AppleWebKit/537.36 (KHTML, like Gecko) Chrome/98.0.4758.102 Safari/537.36" etag="icMMyO0KusP5Wo7aOiRw" version="17.2.1" type="github">
  <diagram id="QrLeMXQSBhMdfv1guapv" name="Page-1">
    <mxGraphModel dx="706" dy="1000" grid="1" gridSize="10" guides="1" tooltips="1" connect="1" arrows="1" fold="1" page="1" pageScale="1" pageWidth="850" pageHeight="1100" math="0" shadow="0">
      <root>
        <mxCell id="0" />
        <mxCell id="1" parent="0" />
        <mxCell id="n_1yOJr4W8pDzG1s_pf7-6" value="" style="rounded=0;whiteSpace=wrap;html=1;fillColor=#000000;" vertex="1" parent="1">
          <mxGeometry x="200" y="320" width="320" height="80" as="geometry" />
        </mxCell>
        <mxCell id="n_1yOJr4W8pDzG1s_pf7-1" value="Welcome to Minesweeper. Please choose a difficulty.&lt;br&gt;1. Beginner (9x9)&lt;br&gt;2. Intermediate (16x16)&lt;br&gt;3. Advanced (16x30)" style="text;html=1;strokeColor=none;fillColor=none;align=left;verticalAlign=middle;whiteSpace=wrap;rounded=0;fontColor=#FFFFFF;" vertex="1" parent="1">
          <mxGeometry x="215" y="330" width="305" height="60" as="geometry" />
        </mxCell>
      </root>
    </mxGraphModel>
  </diagram>
</mxfile>
